<svg width="163" height="85" viewBox="0 0 163 85" fill="none" xmlns="http://www.w3.org/2000/svg">
<path d="M23.86 23.6009L28.2538 26.8863L23.1707 51.3158C26.22 50.8242 29.3614 50.3719 32.5833 49.9604L38.0696 23.6009H23.86ZM135.559 26.8863L139.954 23.6009L133.701 23.6009H127.078L124.145 37.7775L120.148 23.6009L120.114 23.615V23.6009H105.912L110.305 26.8863L107.07 42.4354H101.696L105.617 23.6009H91.4072L95.801 26.8863L91.5454 47.3398C99.6123 47.5897 107.423 48.0776 114.879 48.7802L117.084 38.1768L115.659 37.1613H117.283L121.115 49.4256L121.118 49.4291C124.362 49.7964 127.529 50.2044 130.613 50.6521L135.559 26.8863ZM36.7952 23.6009L41.189 26.8863L36.4863 49.4889C39.5314 49.1387 42.6406 48.8231 45.8131 48.5478L49.3392 31.6069L47.9134 30.5914H48.5509V30.5981H55.5219L55.0899 32.6857H50.4769L48.8935 40.3201L48.8866 40.3413H48.9003L50.2439 48.1931C53.213 47.9726 56.2285 47.7848 59.2889 47.632L58.0443 40.3413H59.3741C61.2865 40.3413 62.9388 38.9753 63.336 37.07L63.5212 36.1736L66.1328 23.6009H36.7952ZM77.2448 40.3413H85.9847L87.5815 32.6857H78.8352L77.2448 40.3413ZM65.1535 23.6009L69.5472 26.8863L65.283 47.3813C68.3054 47.2773 71.3659 47.2089 74.4572 47.1738L77.6974 31.6069L76.2715 30.5914H91.5093L92.9694 23.6009H65.1535Z" fill="#FFE26E"/>
<mask id="mask0_126_71" style="mask-type:luminance" maskUnits="userSpaceOnUse" x="0" y="0" width="163" height="85">
<path d="M0 0H163V84.2837H0V0Z" fill="white"/>
</mask>
<g mask="url(#mask0_126_71)">
<path d="M41.1178 57.0008C41.4342 57.0008 41.7101 57.0541 41.9447 57.1606C42.1797 57.2672 42.3596 57.4201 42.4849 57.6194C42.6099 57.8183 42.6728 58.0548 42.6728 58.3285C42.6728 58.5985 42.6099 58.8341 42.4849 59.0348C42.3596 59.2359 42.1797 59.3893 41.9447 59.4959C41.7101 59.6028 41.4342 59.6561 41.1178 59.6561H40.2935V60.733H39.615V57.0008H41.1178ZM41.0864 59.0696C41.3821 59.0696 41.6064 59.0054 41.7596 58.8776C41.9128 58.7496 41.9892 58.5664 41.9892 58.3285C41.9892 58.0902 41.9128 57.9073 41.7596 57.7792C41.6064 57.6512 41.3821 57.5873 41.0864 57.5873H40.2935V59.0696H41.0864ZM50.0609 60.733L49.3146 59.64C49.2835 59.6437 49.2364 59.6455 49.1738 59.6455H48.3495V60.733H47.671V57.0008H49.1738C49.4903 57.0008 49.7661 57.0541 50.0008 57.1606C50.2357 57.2672 50.4156 57.4201 50.5409 57.6194C50.6659 57.8183 50.7288 58.0548 50.7288 58.3285C50.7288 58.6091 50.6618 58.851 50.5279 59.0535C50.394 59.2561 50.2017 59.4072 49.9513 59.5068L50.7913 60.733H50.0609ZM50.0453 58.3285C50.0453 58.0902 49.9688 57.9073 49.8156 57.7792C49.6624 57.6512 49.4381 57.5873 49.1424 57.5873H48.3495V59.0748H49.1424C49.4381 59.0748 49.6624 59.01 49.8156 58.8804C49.9688 58.7505 50.0453 58.5664 50.0453 58.3285ZM57.5117 60.7863C57.1395 60.7863 56.8038 60.7037 56.5045 60.5383C56.2053 60.373 55.9706 60.1438 55.8003 59.8508C55.6296 59.5573 55.5446 59.2295 55.5446 58.8667C55.5446 58.5044 55.6296 58.1765 55.8003 57.8831C55.9706 57.5901 56.2053 57.3608 56.5045 57.1955C56.8038 57.0302 57.1395 56.9475 57.5117 56.9475C57.8838 56.9475 58.2195 57.0302 58.5188 57.1955C58.8177 57.3608 59.0527 57.5891 59.223 57.8807C59.3935 58.1719 59.4788 58.5007 59.4788 58.8667C59.4788 59.233 59.3935 59.5619 59.223 59.8532C59.0527 60.1447 58.8177 60.373 58.5188 60.5383C58.2195 60.7037 57.8838 60.7863 57.5117 60.7863ZM57.5117 60.1787C57.7552 60.1787 57.9742 60.1226 58.1691 60.0106C58.3638 59.8986 58.5169 59.7421 58.6281 59.5413C58.7395 59.3406 58.7952 59.1156 58.7952 58.8667C58.7952 58.6182 58.7395 58.3933 58.6281 58.1926C58.5169 57.9918 58.3638 57.8353 58.1691 57.7232C57.9742 57.6112 57.7552 57.5552 57.5117 57.5552C57.2681 57.5552 57.0488 57.6112 56.8542 57.7232C56.6596 57.8353 56.5064 57.9918 56.3949 58.1926C56.2838 58.3933 56.2281 58.6182 56.2281 58.8667C56.2281 59.1156 56.2838 59.3406 56.3949 59.5413C56.5064 59.7421 56.6596 59.8986 56.8542 60.0106C57.0488 60.1226 57.2681 60.1787 57.5117 60.1787ZM67.8741 60.733L67.8688 58.2591L66.6688 60.3064H66.3659L65.1659 58.2912V60.733H64.5188V57.0008H65.0773L66.5277 59.4747L67.9523 57.0008H68.5105L68.5159 60.733H67.8741ZM75.5283 60.7863C75.1562 60.7863 74.8205 60.7037 74.5213 60.5383C74.2219 60.373 73.9873 60.1438 73.8169 59.8508C73.6463 59.5573 73.5613 59.2295 73.5613 58.8667C73.5613 58.5044 73.6463 58.1765 73.8169 57.8831C73.9873 57.5901 74.2219 57.3608 74.5213 57.1955C74.8205 57.0302 75.1562 56.9475 75.5283 56.9475C75.9005 56.9475 76.2362 57.0302 76.5355 57.1955C76.8344 57.3608 77.0694 57.5891 77.2397 57.8807C77.4102 58.1719 77.4954 58.5007 77.4954 58.8667C77.4954 59.233 77.4102 59.5619 77.2397 59.8532C77.0694 60.1447 76.8344 60.373 76.5355 60.5383C76.2362 60.7037 75.9005 60.7863 75.5283 60.7863ZM75.5283 60.1787C75.7719 60.1787 75.9909 60.1226 76.1858 60.0106C76.3804 59.8986 76.5337 59.7421 76.6448 59.5413C76.7562 59.3406 76.8119 59.1156 76.8119 58.8667C76.8119 58.6182 76.7562 58.3933 76.6448 58.1926C76.5337 57.9918 76.3804 57.8353 76.1858 57.7232C75.9909 57.6112 75.7719 57.5552 75.5283 57.5552C75.2848 57.5552 75.0656 57.6112 74.8709 57.7232C74.6762 57.8353 74.5231 57.9918 74.4116 58.1926C74.3005 58.3933 74.2448 58.6182 74.2448 58.8667C74.2448 59.1156 74.3005 59.3406 74.4116 59.5413C74.5231 59.7421 74.6762 59.8986 74.8709 60.0106C75.0656 60.1226 75.2848 60.1787 75.5283 60.1787ZM83.2244 57.5873H82.0137V57.0008H85.1133V57.5873H83.9026V60.733H83.2244V57.5873ZM89.9444 57.0008H90.623V60.733H89.9444V57.0008ZM97.6355 60.7863C97.2633 60.7863 96.9276 60.7037 96.6283 60.5383C96.329 60.373 96.0944 60.1438 95.924 59.8508C95.7534 59.5573 95.6683 59.2295 95.6683 58.8667C95.6683 58.5044 95.7534 58.1765 95.924 57.8831C96.0944 57.5901 96.329 57.3608 96.6283 57.1955C96.9276 57.0302 97.2633 56.9475 97.6355 56.9475C98.0076 56.9475 98.3433 57.0302 98.6426 57.1955C98.9415 57.3608 99.1765 57.5891 99.3468 57.8807C99.5172 58.1719 99.6026 58.5007 99.6026 58.8667C99.6026 59.233 99.5172 59.5619 99.3468 59.8532C99.1765 60.1447 98.9415 60.373 98.6426 60.5383C98.3433 60.7037 98.0076 60.7863 97.6355 60.7863ZM97.6355 60.1787C97.879 60.1787 98.098 60.1226 98.2929 60.0106C98.4876 59.8986 98.6407 59.7421 98.7518 59.5413C98.8633 59.3406 98.919 59.1156 98.919 58.8667C98.919 58.6182 98.8633 58.3933 98.7518 58.1926C98.6407 57.9918 98.4876 57.8353 98.2929 57.7232C98.098 57.6112 97.879 57.5552 97.6355 57.5552C97.3919 57.5552 97.1726 57.6112 96.9779 57.7232C96.7833 57.8353 96.63 57.9918 96.5187 58.1926C96.4076 58.3933 96.3518 58.6182 96.3518 58.8667C96.3518 59.1156 96.4076 59.3406 96.5187 59.5413C96.63 59.7421 96.7833 59.8986 96.9779 60.0106C97.1726 60.1226 97.3919 60.1787 97.6355 60.1787ZM107.888 57.0008V60.733H107.33L105.316 58.2058V60.733H104.643V57.0008H105.201L107.215 59.528V57.0008H107.888ZM114.321 60.7863C114.04 60.7863 113.767 60.7455 113.505 60.6637C113.242 60.5819 113.034 60.4736 112.881 60.3385L113.116 59.7998C113.266 59.9207 113.449 60.0193 113.667 60.096C113.884 60.1723 114.102 60.2104 114.321 60.2104C114.593 60.2104 114.795 60.166 114.929 60.0772C115.063 59.9882 115.13 59.871 115.13 59.7254C115.13 59.6188 115.093 59.5308 115.018 59.4614C114.943 59.392 114.848 59.3378 114.734 59.2988C114.619 59.2597 114.462 59.2153 114.264 59.1656C113.986 59.0981 113.761 59.0305 113.588 58.9627C113.416 58.8953 113.268 58.7895 113.145 58.6457C113.021 58.5017 112.96 58.3069 112.96 58.0617C112.96 57.8555 113.014 57.6681 113.124 57.4994C113.233 57.3305 113.399 57.1964 113.619 57.0968C113.841 56.9972 114.111 56.9475 114.431 56.9475C114.654 56.9475 114.873 56.976 115.088 57.0329C115.304 57.0895 115.49 57.1716 115.647 57.2781L115.433 57.8165C115.273 57.7205 115.106 57.6478 114.932 57.5979C114.758 57.5483 114.589 57.5234 114.426 57.5234C114.158 57.5234 113.959 57.5694 113.828 57.662C113.698 57.7544 113.633 57.877 113.633 58.0299C113.633 58.1365 113.67 58.2237 113.745 58.2912C113.82 58.3587 113.914 58.4121 114.029 58.451C114.144 58.4901 114.3 58.5346 114.499 58.5843C114.77 58.6482 114.993 58.7151 115.167 58.7844C115.341 58.8534 115.489 58.9594 115.613 59.1014C115.736 59.2436 115.798 59.4356 115.798 59.6773C115.798 59.8834 115.743 60.07 115.634 60.2371C115.524 60.4042 115.358 60.5374 115.135 60.6371C114.913 60.7366 114.641 60.7863 114.321 60.7863Z" fill="#FFE26E"/>
</g>
</svg>
