<svg width="64" height="61" viewBox="0 0 64 61" fill="none" xmlns="http://www.w3.org/2000/svg">
<g clip-path="url(#clip0_8_361)">
<path fill-rule="evenodd" clip-rule="evenodd" d="M18.8073 0.183C22.2196 0.0332727 23.3076 0 32 0C40.6924 0 41.7804 0.0360454 45.1898 0.183C48.5993 0.329954 50.9265 0.848455 52.9629 1.59986C55.0953 2.36791 57.0298 3.5685 58.6298 5.12123C60.2589 6.64345 61.5156 8.48454 62.3185 10.5197C63.1098 12.4606 63.6509 14.6788 63.808 17.9229C63.9651 21.1809 64 22.2179 64 30.5C64 38.7849 63.9622 39.8219 63.808 43.0743C63.6538 46.3184 63.1098 48.5366 62.3185 50.4775C61.5156 52.5129 60.2568 54.3571 58.6298 55.8815C57.0298 57.4343 55.0953 58.6321 52.9629 59.3974C50.9265 60.1515 48.5993 60.6673 45.1956 60.817C41.7804 60.9667 40.6924 61 32 61C23.3076 61 22.2196 60.964 18.8073 60.817C15.4036 60.67 13.0764 60.1515 11.04 59.3974C8.9045 58.632 6.96966 57.4322 5.37018 55.8815C3.7422 54.3584 2.48237 52.5151 1.67855 50.4803C0.890182 48.5394 0.349091 46.3212 0.192 43.0771C0.034909 39.8191 0 38.7821 0 30.5C0 22.2151 0.0378181 21.1781 0.192 17.9285C0.346182 14.6788 0.890182 12.4606 1.67855 10.5197C2.48356 8.48477 3.74435 6.64155 5.37309 5.11845C6.9703 3.56712 8.90319 2.36637 11.0371 1.59986C13.0735 0.848455 15.4007 0.332727 18.8044 0.183H18.8073ZM44.9309 5.673C41.5564 5.52605 40.544 5.49555 32 5.49555C23.456 5.49555 22.4436 5.52605 19.0691 5.673C15.9476 5.80886 14.2545 6.30518 13.1258 6.72386C11.6335 7.27841 10.5658 7.93555 9.44582 9.00305C8.38413 9.98751 7.56707 11.186 7.05454 12.5105C6.61527 13.5864 6.09455 15.2001 5.952 18.1752C5.79782 21.3916 5.76582 22.3565 5.76582 30.5C5.76582 38.6435 5.79782 39.6084 5.952 42.8248C6.09455 45.7999 6.61527 47.4136 7.05454 48.4895C7.56655 49.812 8.384 51.0126 9.44582 51.997C10.4785 53.009 11.7382 53.7881 13.1258 54.2761C14.2545 54.6948 15.9476 55.1911 19.0691 55.327C22.4436 55.474 23.4531 55.5045 32 55.5045C40.5469 55.5045 41.5564 55.474 44.9309 55.327C48.0524 55.1911 49.7455 54.6948 50.8742 54.2761C52.3665 53.7216 53.4342 53.0645 54.5542 51.997C55.616 51.0126 56.4335 49.812 56.9455 48.4895C57.3847 47.4136 57.9055 45.7999 58.048 42.8248C58.2022 39.6084 58.2342 38.6435 58.2342 30.5C58.2342 22.3565 58.2022 21.3916 58.048 18.1752C57.9055 15.2001 57.3847 13.5864 56.9455 12.5105C56.3636 11.0881 55.6742 10.0705 54.5542 9.00305C53.5212 7.9912 52.2639 7.21245 50.8742 6.72386C49.7455 6.30518 48.0524 5.80886 44.9309 5.673ZM27.9127 39.9023C30.1954 40.808 32.7371 40.9302 35.1038 40.2481C37.4705 39.5661 39.5153 38.122 40.889 36.1626C42.2628 34.2032 42.8802 31.85 42.6358 29.5049C42.3914 27.1598 41.3004 24.9683 39.5491 23.3048C38.4327 22.2414 37.0828 21.4271 35.5966 20.9206C34.1104 20.4142 32.5249 20.228 30.9542 20.3757C29.3835 20.5234 27.8666 21.0011 26.5129 21.7746C25.1591 22.548 24.0022 23.598 23.1252 24.8488C22.2483 26.0996 21.6733 27.5201 21.4415 29.0082C21.2097 30.4962 21.327 32.0147 21.7848 33.4544C22.2427 34.8941 23.0298 36.2191 24.0894 37.334C25.149 38.4489 26.4548 39.3261 27.9127 39.9023ZM20.3695 19.4146C21.8968 17.9589 23.71 16.8041 25.7056 16.0163C27.7012 15.2284 29.84 14.8229 32 14.8229C34.16 14.8229 36.2988 15.2284 38.2944 16.0163C40.29 16.8041 42.1032 17.9589 43.6305 19.4146C45.1579 20.8704 46.3694 22.5986 47.196 24.5006C48.0226 26.4027 48.4481 28.4413 48.4481 30.5C48.4481 32.5587 48.0226 34.5973 47.196 36.4994C46.3694 38.4014 45.1579 40.1296 43.6305 41.5854C40.5459 44.5254 36.3623 46.1771 32 46.1771C27.6377 46.1771 23.4541 44.5254 20.3695 41.5854C17.2848 38.6453 15.5519 34.6578 15.5519 30.5C15.5519 26.3422 17.2848 22.3547 20.3695 19.4146ZM52.096 17.1576C52.4745 16.8173 52.7775 16.4081 52.9871 15.9542C53.1966 15.5003 53.3085 15.0109 53.3161 14.515C53.3237 14.0192 53.2268 13.5269 53.0312 13.0673C52.8356 12.6078 52.5453 12.1903 52.1773 11.8397C51.8094 11.489 51.3714 11.2122 50.8893 11.0258C50.4071 10.8394 49.8906 10.747 49.3704 10.7543C48.8501 10.7615 48.3367 10.8681 47.8604 11.0679C47.3842 11.2676 46.9548 11.5564 46.5978 11.9172C45.9034 12.6188 45.5233 13.5507 45.538 14.515C45.5528 15.4794 45.9613 16.4003 46.6768 17.0823C47.3923 17.7643 48.3586 18.1537 49.3704 18.1677C50.3822 18.1818 51.3599 17.8195 52.096 17.1576Z" fill="#FDE473"/>
</g>
<defs>
<clipPath id="clip0_8_361">
<rect width="64" height="61" fill="white"/>
</clipPath>
</defs>
</svg>
